# This file uses centimeters as units for non-parametric coordinates.

mtllib Plant.mtl
g default
v -0.002418 -0.000000 -0.001425
v -0.002418 -0.000000 2.538583
v 2.537574 0.000000 -0.001425
v 2.537574 0.000000 2.538583
vt 0.001895 0.001992
vt 0.524163 0.001992
vt 0.524163 0.524260
vt 0.001895 0.524260
vn -0.000000 1.000000 0.000000
vn -0.000000 1.000000 0.000000
vn -0.000000 1.000000 0.000000
vn -0.000000 1.000000 0.000000
s off
g floor
usemtl phong1SG
f 1/1/1 2/2/2 4/3/3 3/4/4
g default
v 2.542806 0.215497 -0.000581
v 2.542806 0.147371 0.010209
v 2.542806 0.085914 0.041523
v 2.542806 0.037142 0.090296
v 2.542806 0.005828 0.151753
v 2.542806 -0.004962 0.219878
v -0.000911 0.215497 -0.000581
v -0.000911 0.147371 0.010209
v -0.000911 0.085914 0.041523
v -0.000911 0.037142 0.090296
v -0.000911 0.005828 0.151753
v -0.000911 -0.004962 0.219878
v 2.542806 2.538715 0.221303
v 2.542806 2.527925 0.153177
v 2.542806 2.496611 0.091720
v 2.542806 2.447839 0.042948
v 2.542806 2.386382 0.011634
v 2.542806 2.318256 0.000844
v -0.000911 2.538715 0.221303
v -0.000911 2.527925 0.153177
v -0.000911 2.496611 0.091720
v -0.000911 2.447839 0.042948
v -0.000911 2.386382 0.011634
v -0.000911 2.318256 0.000844
v -0.005825 2.328787 0.001034
v 2.534175 2.328787 0.001034
v -0.005825 0.211213 0.001034
v 2.534175 0.211213 0.001034
vt 0.425000 0.312500
vt 0.437500 0.312500
vt 0.450000 0.312500
vt 0.462500 0.312500
vt 0.475000 0.312500
vt 0.487500 0.312500
vt 0.425000 0.688440
vt 0.437500 0.688440
vt 0.450000 0.688440
vt 0.462500 0.688440
vt 0.475000 0.688440
vt 0.487500 0.688440
vt 0.425000 0.312500
vt 0.425000 0.688440
vt 0.437500 0.688440
vt 0.437500 0.312500
vt 0.450000 0.688440
vt 0.450000 0.312500
vt 0.462500 0.688440
vt 0.462500 0.312500
vt 0.475000 0.688440
vt 0.475000 0.312500
vt 0.487500 0.688440
vt 0.487500 0.312500
vt 0.001934 0.625931
vt 0.001934 0.001992
vt 0.625872 0.001992
vt 0.625872 0.625931
vn 0.000000 0.156435 0.987688
vn 0.000000 0.156435 0.987688
vn 0.000000 0.309017 0.951057
vn 0.000000 0.309017 0.951057
vn 0.000000 0.587786 0.809017
vn 0.000000 0.587786 0.809017
vn 0.000000 0.809017 0.587785
vn 0.000000 0.809017 0.587785
vn 0.000000 0.951057 0.309017
vn 0.000000 0.951057 0.309017
vn 0.000000 0.987688 0.156434
vn 0.000000 0.987688 0.156434
vn 0.000000 -0.987688 0.156434
vn 0.000000 -0.987688 0.156434
vn 0.000000 -0.951057 0.309017
vn 0.000000 -0.951057 0.309017
vn 0.000000 -0.809018 0.587784
vn 0.000000 -0.809018 0.587784
vn 0.000000 -0.587785 0.809017
vn 0.000000 -0.587785 0.809017
vn 0.000000 -0.309017 0.951057
vn 0.000000 -0.309017 0.951057
vn 0.000000 -0.156435 0.987688
vn 0.000000 -0.156435 0.987688
vn 0.000000 0.000000 1.000000
vn 0.000000 0.000000 1.000000
vn 0.000000 0.000000 1.000000
vn 0.000000 0.000000 1.000000
s 1
g wall
usemtl phong1SG
f 5/5/5 11/11/6 12/12/7 6/6/8
f 6/6/8 12/12/7 13/13/9 7/7/10
f 7/7/10 13/13/9 14/14/11 8/8/12
f 8/8/12 14/14/11 15/15/13 9/9/14
f 9/9/14 15/15/13 16/16/15 10/10/16
s 2
f 17/17/17 23/18/18 24/19/19 18/20/20
f 18/20/20 24/19/19 25/21/21 19/22/22
f 19/22/22 25/21/21 26/23/23 20/24/24
f 20/24/24 26/23/23 27/25/25 21/26/26
f 21/26/26 27/25/25 28/27/27 22/28/28
s off
f 29/29/29 31/30/30 32/31/31 30/32/32
g default
v -0.006555 2.540000 -0.000692
v -0.006555 2.540000 2.539309
v 2.533445 2.540000 -0.000692
v 2.533445 2.540000 2.539309
vt 0.001895 0.001992
vt 0.524163 0.001992
vt 0.524163 0.524260
vt 0.001895 0.524260
vn 0.000000 -1.000000 0.000000
vn 0.000000 -1.000000 0.000000
vn 0.000000 -1.000000 0.000000
vn 0.000000 -1.000000 0.000000
s off
g ceiling
usemtl phong1SG
f 33/33/33 35/36/34 36/35/35 34/34/36
